<?xml version="1.0" encoding="UTF-8" standalone="no"?>
<!-- Generator: Gravit.io -->
<svg xmlns="http://www.w3.org/2000/svg" xmlns:xlink="http://www.w3.org/1999/xlink" style="isolation:isolate" viewBox="0 0 16 16" width="16pt" height="16pt"><defs><clipPath id="_clipPath_v1kJvMe6zFX49NszjwE8UobgI4vnbTdC"><rect width="16" height="16"/></clipPath></defs><g clip-path="url(#_clipPath_v1kJvMe6zFX49NszjwE8UobgI4vnbTdC)"><g><path d=" M 9.518 11.259 C 9.367 11.161 9.347 11.145 9.249 11.051 C 9.174 10.98 9.15 10.941 9.15 10.896 C 9.15 10.831 9.211 10.675 9.235 10.675 C 9.245 10.675 9.251 10.667 9.251 10.656 C 9.251 10.646 9.284 10.604 9.325 10.561 C 9.365 10.516 9.485 10.376 9.593 10.248 C 9.701 10.119 9.829 9.969 9.878 9.912 C 9.929 9.857 9.99 9.786 10.016 9.755 C 10.043 9.727 10.065 9.696 10.065 9.688 C 10.065 9.682 10.098 9.641 10.138 9.601 C 10.179 9.56 10.24 9.485 10.275 9.434 C 10.309 9.383 10.354 9.324 10.374 9.304 C 10.395 9.281 10.411 9.257 10.411 9.249 C 10.411 9.241 10.423 9.22 10.437 9.206 C 10.452 9.192 10.529 9.092 10.608 8.986 C 10.688 8.88 10.781 8.762 10.816 8.724 C 10.85 8.685 10.879 8.642 10.879 8.628 C 10.879 8.614 10.887 8.6 10.895 8.596 C 10.903 8.594 10.942 8.549 10.98 8.498 C 11.019 8.449 11.062 8.396 11.076 8.38 C 11.09 8.366 11.149 8.286 11.206 8.203 C 11.263 8.12 11.318 8.05 11.328 8.05 C 11.339 8.05 11.347 8.04 11.347 8.028 C 11.347 8.016 11.379 7.967 11.418 7.92 C 11.457 7.871 11.489 7.825 11.489 7.812 C 11.489 7.786 11.613 7.619 11.656 7.587 C 11.676 7.572 11.692 7.542 11.692 7.522 C 11.692 7.501 11.715 7.458 11.743 7.428 L 11.792 7.375 L 11.717 7.292 C 11.597 7.159 10.106 5.678 9.89 5.477 C 9.782 5.377 9.681 5.282 9.666 5.267 C 9.65 5.251 9.638 5.2 9.638 5.149 C 9.638 5.05 9.662 5.017 9.955 4.72 C 10.061 4.61 10.089 4.592 10.153 4.592 C 10.242 4.592 10.275 4.616 10.675 5.011 C 11.516 5.839 11.849 6.159 12.158 6.435 C 12.207 6.478 12.282 6.547 12.323 6.586 L 12.4 6.659 L 12.49 6.551 C 12.537 6.492 12.584 6.443 12.594 6.443 C 12.602 6.443 12.608 6.431 12.608 6.417 C 12.608 6.403 12.626 6.38 12.649 6.366 C 12.671 6.352 12.689 6.329 12.689 6.315 C 12.689 6.301 12.706 6.274 12.726 6.258 C 12.769 6.22 12.832 6.144 12.876 6.077 C 12.895 6.049 12.935 6 12.964 5.965 C 12.994 5.933 13.068 5.841 13.127 5.762 C 13.184 5.685 13.263 5.585 13.302 5.544 C 13.34 5.503 13.389 5.444 13.412 5.412 C 13.434 5.381 13.505 5.292 13.57 5.213 C 13.633 5.135 13.709 5.044 13.737 5.009 C 13.763 4.977 13.816 4.905 13.853 4.855 C 13.959 4.704 14.128 4.484 14.183 4.425 C 14.211 4.397 14.282 4.309 14.339 4.232 C 14.396 4.157 14.457 4.086 14.471 4.077 C 14.488 4.069 14.5 4.053 14.5 4.043 C 14.5 4.031 14.516 4.004 14.534 3.982 C 14.583 3.925 14.734 3.925 14.768 3.982 C 14.783 4.004 14.805 4.022 14.819 4.022 C 14.834 4.022 14.852 4.035 14.86 4.049 C 14.868 4.063 14.899 4.09 14.927 4.108 C 14.956 4.124 15.017 4.177 15.065 4.222 C 15.139 4.293 15.151 4.317 15.151 4.389 C 15.151 4.472 15.12 4.527 15.004 4.661 C 14.976 4.696 14.913 4.771 14.866 4.826 C 14.711 5.013 14.632 5.105 14.577 5.166 C 14.545 5.198 14.52 5.231 14.52 5.239 C 14.52 5.247 14.498 5.28 14.469 5.31 C 14.441 5.341 14.37 5.426 14.313 5.501 C 14.256 5.579 14.178 5.676 14.142 5.723 C 14.103 5.77 14.073 5.813 14.073 5.821 C 14.073 5.829 14.046 5.866 14.012 5.9 C 13.951 5.967 13.871 6.061 13.696 6.279 C 13.641 6.348 13.574 6.427 13.55 6.456 C 13.523 6.484 13.503 6.515 13.503 6.525 C 13.503 6.535 13.468 6.58 13.428 6.626 C 13.318 6.742 13.3 6.765 13.3 6.779 C 13.3 6.785 13.281 6.812 13.257 6.836 C 13.235 6.86 13.186 6.921 13.151 6.972 C 13.117 7.023 13.084 7.068 13.076 7.074 C 13.07 7.08 13.039 7.117 13.009 7.157 L 12.954 7.231 L 13.08 7.349 C 13.151 7.414 13.391 7.642 13.615 7.857 C 13.839 8.073 14.058 8.278 14.101 8.317 C 14.146 8.356 14.248 8.451 14.329 8.529 C 14.408 8.608 14.52 8.712 14.573 8.76 C 14.628 8.811 14.783 8.958 14.917 9.086 C 15.051 9.216 15.208 9.363 15.263 9.409 C 15.32 9.458 15.421 9.554 15.493 9.623 C 15.594 9.725 15.619 9.759 15.619 9.814 C 15.619 9.849 15.607 9.892 15.594 9.906 C 15.58 9.92 15.497 10.012 15.407 10.111 C 15.267 10.268 15.24 10.288 15.179 10.288 C 15.08 10.288 15.049 10.266 14.785 10.003 C 14.657 9.875 14.447 9.674 14.321 9.558 C 14.197 9.442 14.05 9.306 13.995 9.253 C 13.942 9.202 13.839 9.11 13.768 9.049 C 13.694 8.988 13.621 8.925 13.605 8.907 C 13.588 8.889 13.532 8.84 13.479 8.799 C 13.428 8.756 13.355 8.693 13.316 8.657 C 13.277 8.62 13.2 8.551 13.145 8.504 C 13.09 8.457 13.027 8.402 13.003 8.382 C 12.978 8.362 12.915 8.309 12.862 8.264 C 12.809 8.219 12.746 8.164 12.724 8.142 C 12.699 8.12 12.616 8.048 12.537 7.983 L 12.394 7.867 L 12.356 7.92 C 12.335 7.949 12.244 8.061 12.152 8.168 C 12.061 8.276 11.959 8.402 11.926 8.447 C 11.894 8.492 11.823 8.579 11.772 8.64 C 11.719 8.701 11.587 8.88 11.477 9.037 C 11.292 9.304 11.151 9.491 11.119 9.515 C 11.113 9.521 11.066 9.59 11.017 9.672 C 10.966 9.751 10.897 9.857 10.86 9.906 C 10.824 9.955 10.716 10.099 10.62 10.227 C 10.527 10.355 10.435 10.477 10.419 10.498 C 10.403 10.518 10.362 10.573 10.329 10.62 C 10.295 10.667 10.254 10.724 10.238 10.746 C 10.222 10.768 10.146 10.87 10.073 10.97 C 10 11.071 9.927 11.163 9.91 11.175 C 9.894 11.187 9.882 11.204 9.882 11.21 C 9.882 11.218 9.866 11.242 9.847 11.265 C 9.797 11.324 9.611 11.322 9.518 11.259 Z " fill="rgb(0,0,0)"/><path d=" M 6.845 9.074 C 6.839 9.053 6.826 8.974 6.82 8.895 C 6.812 8.817 6.794 8.663 6.778 8.555 C 6.761 8.447 6.743 8.266 6.737 8.152 C 6.729 8.04 6.714 7.943 6.704 7.937 C 6.696 7.93 6.688 7.878 6.688 7.816 C 6.688 7.755 6.68 7.703 6.672 7.696 C 6.664 7.692 6.603 7.705 6.535 7.727 C 6.47 7.747 6.379 7.766 6.33 7.766 C 6.236 7.766 6.234 7.764 6.21 7.623 C 6.204 7.585 6.184 7.487 6.165 7.406 C 6.127 7.227 6.137 7.174 6.224 7.137 C 6.291 7.111 6.322 7.098 6.531 7.005 L 6.649 6.954 L 6.637 6.704 C 6.629 6.565 6.611 6.285 6.592 6.077 C 6.576 5.87 6.558 5.54 6.552 5.343 C 6.542 4.987 6.542 4.985 6.588 4.938 C 6.629 4.901 7.073 4.673 7.107 4.673 C 7.111 4.673 7.215 4.627 7.335 4.57 C 7.536 4.472 7.772 4.362 7.919 4.297 C 7.953 4.283 8.09 4.216 8.224 4.149 C 8.358 4.083 8.537 3.998 8.621 3.961 C 8.879 3.85 9.186 3.699 9.198 3.679 C 9.205 3.668 9.235 3.654 9.266 3.646 C 9.312 3.636 9.723 3.439 9.872 3.357 C 9.894 3.343 9.959 3.312 10.014 3.288 C 10.071 3.264 10.273 3.168 10.466 3.074 C 10.706 2.956 10.836 2.904 10.887 2.904 L 10.96 2.904 L 10.96 3.005 C 10.96 3.06 10.952 3.172 10.942 3.253 C 10.93 3.335 10.911 3.51 10.897 3.642 L 10.875 3.882 L 10.728 3.951 C 10.649 3.988 10.551 4.035 10.513 4.051 C 10.474 4.067 10.419 4.096 10.391 4.112 C 10.323 4.153 10.205 4.206 10.185 4.206 C 10.175 4.206 10.12 4.228 10.061 4.254 C 10.002 4.281 9.921 4.313 9.882 4.328 C 9.843 4.342 9.784 4.364 9.75 4.378 C 9.717 4.395 9.626 4.429 9.546 4.456 C 9.349 4.525 9.129 4.612 9.064 4.645 C 9.036 4.661 9.001 4.673 8.987 4.673 C 8.962 4.673 8.857 4.716 8.763 4.765 C 8.735 4.779 8.663 4.802 8.606 4.818 C 8.547 4.832 8.499 4.85 8.499 4.859 C 8.499 4.869 8.46 4.885 8.413 4.899 C 8.364 4.911 8.289 4.938 8.244 4.958 C 8.2 4.977 8.118 5.009 8.061 5.029 C 7.939 5.072 7.652 5.188 7.512 5.253 C 7.457 5.278 7.378 5.31 7.337 5.322 C 7.278 5.341 7.266 5.355 7.27 5.392 C 7.274 5.416 7.286 5.693 7.298 6.006 C 7.311 6.319 7.325 6.606 7.333 6.643 C 7.343 6.706 7.347 6.71 7.406 6.696 C 7.441 6.689 7.483 6.675 7.502 6.665 C 7.534 6.649 7.699 6.588 8.061 6.464 C 8.291 6.386 8.521 6.295 8.584 6.26 C 8.604 6.248 8.674 6.24 8.741 6.24 C 8.853 6.24 8.861 6.244 8.881 6.297 C 8.91 6.37 8.952 6.812 8.934 6.856 C 8.918 6.901 8.855 6.934 8.672 6.993 C 8.594 7.017 8.521 7.045 8.509 7.054 C 8.499 7.062 8.425 7.088 8.346 7.113 C 8.214 7.155 8.069 7.208 7.756 7.33 C 7.689 7.357 7.565 7.397 7.481 7.422 C 7.398 7.446 7.321 7.473 7.311 7.481 C 7.294 7.497 7.304 7.607 7.359 8.109 C 7.37 8.203 7.382 8.282 7.388 8.288 C 7.394 8.297 7.53 8.254 8.01 8.089 C 8.049 8.077 8.114 8.052 8.153 8.038 C 8.191 8.024 8.307 7.989 8.407 7.959 C 8.509 7.928 8.641 7.886 8.702 7.863 C 8.763 7.841 8.832 7.819 8.855 7.812 C 8.877 7.806 8.924 7.79 8.96 7.774 C 8.995 7.757 9.036 7.745 9.05 7.745 C 9.074 7.745 9.182 7.713 9.261 7.682 C 9.284 7.674 9.39 7.64 9.495 7.605 C 9.601 7.572 9.744 7.524 9.811 7.499 C 10.004 7.43 10.201 7.379 10.277 7.379 C 10.342 7.379 10.346 7.383 10.358 7.467 C 10.38 7.64 10.395 7.906 10.382 7.955 C 10.374 7.991 10.352 8.008 10.305 8.018 C 10.234 8.032 9.799 8.164 9.729 8.193 C 9.707 8.201 9.534 8.256 9.343 8.315 C 8.936 8.439 8.708 8.512 8.651 8.539 C 8.629 8.549 8.492 8.598 8.346 8.646 C 8.202 8.697 7.964 8.779 7.817 8.832 C 7.673 8.885 7.465 8.956 7.359 8.988 C 7.254 9.023 7.14 9.059 7.105 9.072 C 7.073 9.084 7.001 9.098 6.948 9.102 C 6.871 9.11 6.853 9.106 6.845 9.074 Z " fill="rgb(0,0,0)"/><path d=" M 5.596 11.334 C 5.581 11.303 5.569 11.261 5.569 11.24 C 5.569 11.22 5.561 11.187 5.551 11.167 C 5.531 11.126 5.437 10.762 5.386 10.512 C 5.366 10.416 5.335 10.302 5.317 10.258 C 5.301 10.213 5.286 10.148 5.284 10.111 C 5.284 10.077 5.276 10.042 5.268 10.036 C 5.258 10.03 5.236 9.944 5.215 9.847 C 5.197 9.749 5.17 9.631 5.158 9.586 C 5.146 9.542 5.124 9.448 5.109 9.379 C 5.093 9.308 5.067 9.19 5.048 9.114 C 5.03 9.037 5.008 8.935 5 8.885 C 4.989 8.834 4.959 8.701 4.93 8.59 C 4.902 8.478 4.867 8.327 4.857 8.254 C 4.845 8.181 4.821 8.063 4.804 7.989 C 4.788 7.916 4.755 7.762 4.733 7.644 C 4.709 7.526 4.678 7.367 4.662 7.288 C 4.646 7.21 4.627 7.072 4.621 6.98 L 4.607 6.818 L 4.849 6.657 C 4.983 6.567 5.158 6.447 5.242 6.388 C 5.36 6.303 5.408 6.281 5.469 6.281 C 5.559 6.281 5.559 6.283 5.577 6.504 C 5.583 6.578 5.606 6.761 5.628 6.911 C 5.667 7.178 5.734 7.709 5.773 8.081 C 5.783 8.183 5.805 8.343 5.823 8.437 C 5.84 8.533 5.854 8.653 5.854 8.708 C 5.854 8.76 5.862 8.819 5.872 8.84 C 5.884 8.858 5.907 9.031 5.925 9.22 C 5.974 9.743 6.045 10.296 6.068 10.325 C 6.072 10.329 6.155 10.294 6.253 10.252 C 6.352 10.207 6.456 10.164 6.483 10.156 C 6.509 10.148 6.611 10.101 6.706 10.054 C 6.802 10.007 6.965 9.928 7.064 9.881 C 7.166 9.835 7.321 9.759 7.41 9.715 C 7.5 9.668 7.628 9.605 7.695 9.572 C 7.839 9.503 7.839 9.503 8.346 9.23 C 8.47 9.165 8.771 9.009 9.015 8.887 C 9.392 8.695 9.477 8.661 9.556 8.661 C 9.648 8.661 9.652 8.663 9.695 8.752 C 9.719 8.803 9.74 8.862 9.74 8.88 C 9.74 8.901 9.748 8.925 9.758 8.935 C 9.784 8.966 9.862 9.212 9.862 9.271 C 9.862 9.379 9.839 9.393 9.089 9.757 C 8.948 9.826 8.82 9.889 8.804 9.902 C 8.787 9.912 8.659 9.977 8.519 10.044 C 8.379 10.113 8.122 10.239 7.949 10.327 C 7.776 10.414 7.506 10.551 7.349 10.628 C 6.989 10.807 6.9 10.854 6.81 10.903 C 6.771 10.923 6.698 10.96 6.647 10.982 C 6.596 11.004 6.529 11.037 6.495 11.055 C 6.387 11.11 6.092 11.257 5.968 11.316 C 5.893 11.352 5.803 11.377 5.734 11.383 C 5.626 11.389 5.618 11.387 5.596 11.334 Z " fill="rgb(0,0,0)"/><path d=" M 3.276 13.079 C 3.217 13.043 3.171 12.819 3.128 12.394 C 3.116 12.272 3.091 12.078 3.075 11.967 C 3.04 11.729 2.979 11.177 2.935 10.675 C 2.916 10.479 2.888 10.227 2.874 10.115 C 2.857 10.003 2.835 9.83 2.821 9.729 C 2.807 9.629 2.794 9.544 2.792 9.54 C 2.786 9.533 2.528 9.67 2.457 9.717 C 2.428 9.735 2.371 9.767 2.331 9.788 C 2.288 9.81 2.253 9.835 2.253 9.845 C 2.253 9.853 2.241 9.861 2.227 9.861 C 2.213 9.861 2.154 9.894 2.097 9.932 C 2.038 9.971 1.987 10.003 1.981 10.003 C 1.977 10.003 1.913 10.04 1.844 10.085 C 1.773 10.13 1.673 10.189 1.623 10.217 C 1.572 10.245 1.48 10.3 1.419 10.339 C 1.142 10.508 0.858 10.654 0.805 10.654 C 0.758 10.654 0.727 10.624 0.605 10.453 C 0.426 10.199 0.418 10.138 0.55 10.048 C 0.646 9.985 0.89 9.843 1.094 9.735 C 1.33 9.609 1.47 9.527 1.476 9.511 C 1.48 9.503 1.496 9.495 1.513 9.495 C 1.529 9.495 1.541 9.487 1.541 9.474 C 1.541 9.464 1.559 9.454 1.582 9.454 C 1.604 9.454 1.623 9.446 1.623 9.438 C 1.623 9.428 1.671 9.397 1.73 9.367 C 1.789 9.338 1.887 9.281 1.946 9.243 C 2.005 9.202 2.064 9.169 2.076 9.169 C 2.088 9.169 2.113 9.157 2.129 9.141 C 2.147 9.127 2.225 9.08 2.302 9.037 C 2.381 8.994 2.455 8.95 2.469 8.935 C 2.483 8.923 2.524 8.899 2.562 8.882 C 2.695 8.83 2.705 8.807 2.68 8.638 C 2.67 8.555 2.648 8.352 2.63 8.183 C 2.613 8.016 2.587 7.76 2.571 7.613 C 2.532 7.288 2.526 7.22 2.487 6.852 C 2.471 6.692 2.455 6.555 2.448 6.549 C 2.442 6.545 2.377 6.578 2.304 6.624 C 2.231 6.671 2.149 6.718 2.125 6.728 C 2.08 6.744 2.013 6.793 1.946 6.854 C 1.926 6.873 1.875 6.907 1.832 6.93 C 1.789 6.95 1.734 6.989 1.71 7.011 C 1.686 7.035 1.659 7.054 1.651 7.054 C 1.645 7.054 1.592 7.088 1.535 7.131 C 1.417 7.216 1.399 7.229 1.262 7.298 C 1.21 7.326 1.102 7.389 1.026 7.438 C 0.906 7.517 0.87 7.53 0.782 7.532 L 0.677 7.532 L 0.597 7.308 C 0.359 6.633 0.337 6.508 0.439 6.409 C 0.502 6.346 0.55 6.315 0.758 6.209 C 0.837 6.169 0.951 6.108 1.012 6.073 C 1.114 6.016 1.346 5.894 1.582 5.77 C 1.633 5.744 1.677 5.715 1.684 5.709 C 1.69 5.703 1.838 5.628 2.013 5.54 C 2.19 5.453 2.339 5.373 2.347 5.363 C 2.353 5.353 2.373 5.345 2.394 5.345 C 2.414 5.345 2.453 5.329 2.479 5.306 C 2.546 5.253 2.922 5.06 2.957 5.06 C 2.973 5.06 2.986 5.054 2.986 5.044 C 2.986 5.036 3.049 4.997 3.128 4.958 C 3.205 4.92 3.27 4.881 3.27 4.873 C 3.27 4.867 3.319 4.844 3.378 4.824 C 3.435 4.806 3.494 4.777 3.504 4.763 C 3.517 4.747 3.584 4.712 3.657 4.682 C 3.73 4.653 3.803 4.616 3.82 4.602 C 3.836 4.588 3.889 4.56 3.938 4.541 C 3.984 4.521 4.023 4.501 4.023 4.492 C 4.023 4.484 4.09 4.448 4.172 4.411 C 4.251 4.376 4.332 4.338 4.349 4.326 C 4.365 4.315 4.414 4.291 4.456 4.273 C 4.497 4.254 4.532 4.234 4.532 4.226 C 4.532 4.216 4.556 4.204 4.589 4.197 C 4.666 4.177 4.877 4.079 4.877 4.061 C 4.877 4.053 4.902 4.041 4.934 4.033 C 4.965 4.027 5.052 3.984 5.128 3.939 C 5.205 3.896 5.276 3.86 5.286 3.86 C 5.307 3.86 5.651 3.679 5.679 3.654 C 5.691 3.644 5.748 3.636 5.805 3.636 C 5.925 3.636 5.917 3.628 5.956 3.829 C 5.97 3.896 5.988 3.988 6 4.033 C 6.011 4.077 6.025 4.169 6.031 4.236 C 6.041 4.358 6.041 4.358 5.972 4.397 C 5.935 4.419 5.901 4.444 5.895 4.45 C 5.889 4.458 5.844 4.486 5.793 4.511 C 5.744 4.537 5.671 4.578 5.63 4.604 C 5.533 4.665 5.39 4.749 5.305 4.791 C 5.266 4.81 5.231 4.832 5.227 4.842 C 5.223 4.85 5.207 4.857 5.191 4.857 C 5.177 4.857 5.109 4.891 5.046 4.932 C 4.981 4.975 4.853 5.048 4.759 5.095 C 4.666 5.143 4.538 5.217 4.475 5.257 C 4.412 5.3 4.334 5.345 4.304 5.359 C 4.271 5.373 4.206 5.412 4.157 5.446 C 4.106 5.479 4.054 5.508 4.037 5.508 C 4.021 5.508 4.003 5.52 3.997 5.534 C 3.991 5.546 3.923 5.591 3.848 5.63 C 3.771 5.668 3.7 5.709 3.687 5.717 C 3.677 5.727 3.63 5.754 3.586 5.78 C 3.514 5.819 3.502 5.835 3.486 5.925 C 3.464 6.045 3.458 8.295 3.48 8.329 C 3.494 8.352 3.63 8.29 3.866 8.156 C 3.911 8.13 3.978 8.111 4.031 8.111 C 4.102 8.111 4.123 8.12 4.141 8.16 C 4.153 8.187 4.188 8.24 4.22 8.276 C 4.304 8.376 4.369 8.506 4.369 8.573 C 4.369 8.638 4.29 8.697 3.934 8.903 C 3.653 9.066 3.541 9.147 3.527 9.196 C 3.521 9.22 3.523 9.391 3.535 9.576 C 3.545 9.761 3.563 10.123 3.576 10.38 C 3.622 11.377 3.681 12.103 3.759 12.652 C 3.793 12.88 3.785 12.957 3.728 13 C 3.624 13.075 3.346 13.124 3.276 13.079 Z " fill="rgb(0,0,0)"/></g></g></svg>